<?xml version="1.0" standalone="no"?>
<!DOCTYPE svg PUBLIC "-//W3C//DTD SVG 20010904//EN"
 "http://www.w3.org/TR/2001/REC-SVG-20010904/DTD/svg10.dtd">
<svg version="1.0" xmlns="http://www.w3.org/2000/svg"
 width="500.000000pt" height="500.000000pt" viewBox="0 0 500.000000 500.000000"
 preserveAspectRatio="xMidYMid meet">

<g transform="translate(0.000000,500.000000) scale(0.100000,-0.100000)"
fill="#000000" stroke="none">
<path d="M3221 4255 c-249 -62 -460 -116 -469 -120 -10 -4 31 -32 123 -85 76
-44 141 -82 144 -85 3 -3 -105 -116 -239 -250 l-245 -245 -525 0 -525 0 -50
-29 c-61 -35 -100 -88 -116 -157 -10 -44 -9 -59 6 -109 39 -123 159 -189 282
-155 36 10 62 28 105 72 l56 58 344 -2 343 -3 5 -615 5 -615 223 -3 c127 -1
239 2 261 8 36 9 96 62 103 89 2 11 -39 14 -237 15 l-240 1 -3 612 -2 611 -48
4 c-26 3 -229 5 -452 4 l-404 -1 -6 -30 c-15 -72 -70 -113 -137 -102 -101 17
-135 138 -57 206 l35 31 541 0 540 0 309 313 c276 279 307 313 291 325 -9 7
-47 30 -84 50 -38 20 -65 39 -60 43 8 7 503 131 507 127 4 -4 -98 -112 -419
-443 -149 -154 -306 -316 -349 -361 l-77 -81 2 -587 3 -587 65 54 c36 30 146
123 245 206 99 83 184 151 188 151 5 0 7 -125 5 -277 -3 -259 -4 -281 -24
-324 -30 -64 -88 -125 -148 -157 l-51 -27 -747 -3 -748 -2 0 -55 0 -55 740 0
c820 0 776 -3 894 67 67 41 133 123 168 211 22 55 23 71 26 394 l3 337 125
103 124 103 0 73 0 73 -34 -28 c-18 -15 -147 -125 -286 -243 -366 -311 -424
-359 -432 -360 -5 0 -8 201 -8 446 l0 446 227 234 c125 129 229 234 232 234 3
0 53 -74 111 -165 58 -90 108 -165 111 -165 3 0 34 125 68 278 35 152 83 360
107 462 24 102 44 188 44 193 0 14 -37 6 -489 -108z m264 -390 c-20 -82 -37
-151 -40 -153 -6 -7 -6 -8 -54 67 -40 62 -40 65 -24 85 30 36 147 156 150 153
1 -2 -13 -70 -32 -152z"/>
<path d="M2490 4303 c-52 -19 -67 -107 -25 -149 22 -22 25 -33 25 -99 l0 -74
-204 -208 -204 -208 181 -3 181 -2 118 117 c102 102 122 117 152 119 75 2 116
67 82 132 -17 34 -33 42 -82 42 -49 0 -84 -37 -84 -87 0 -35 -8 -47 -108 -146
l-108 -108 -85 3 -84 3 158 161 157 161 0 83 c0 77 2 84 30 117 40 45 40 85 1
124 -29 28 -63 36 -101 22z m65 -88 c0 -23 -5 -31 -21 -33 -27 -4 -47 21 -39
48 5 16 14 20 33 18 23 -2 27 -8 27 -33z m194 -314 c13 -24 -8 -55 -34 -50
-28 6 -42 34 -26 53 18 22 48 20 60 -3z"/>
<path d="M2205 4045 c-18 -17 -25 -35 -25 -62 -1 -36 -12 -49 -187 -228 l-187
-190 44 -3 43 -3 166 165 c155 155 169 166 203 166 49 0 87 33 95 82 5 32 1
41 -25 68 -39 39 -91 41 -127 5z m83 -37 c26 -26 2 -75 -31 -62 -22 8 -29 32
-17 55 12 22 30 25 48 7z"/>
<path d="M3139 3515 c-30 -16 -54 -65 -46 -94 3 -13 -22 -46 -94 -120 l-99
-101 0 -311 0 -312 33 26 32 25 2 132 2 133 163 167 163 167 83 2 c76 1 85 -1
105 -23 53 -60 157 -21 157 58 0 53 -37 91 -90 91 -33 0 -47 -6 -66 -28 -22
-26 -27 -27 -116 -27 l-93 0 -150 -150 c-82 -82 -153 -150 -156 -150 -4 0 -6
38 -5 85 l1 85 90 90 c84 84 92 90 131 90 84 0 119 94 56 151 -36 32 -63 36
-103 14z m79 -77 c2 -19 -2 -28 -18 -33 -24 -8 -50 10 -50 35 0 24 10 31 40
28 19 -2 26 -10 28 -30z m361 -155 c12 -23 -4 -53 -29 -53 -26 0 -45 36 -29
56 16 19 46 18 58 -3z"/>
<path d="M3244 3086 c-22 -18 -28 -32 -28 -64 -1 -37 -8 -48 -63 -104 -58 -59
-62 -66 -63 -113 -1 -27 -1 -54 -1 -58 2 -16 61 34 61 51 0 10 27 44 60 77 46
45 67 59 85 57 38 -5 82 24 94 61 30 90 -73 156 -145 93z m86 -41 c18 -22 8
-50 -19 -50 -32 0 -49 28 -32 49 17 20 35 20 51 1z"/>
<path d="M1748 2518 l-3 -553 -62 -3 -63 -3 0 -55 0 -54 353 2 352 3 3 487 c1
298 -2 496 -8 512 -12 34 -54 44 -80 21 -19 -17 -20 -36 -22 -464 l-3 -446
-60 0 -60 0 -3 444 c-2 396 -4 447 -19 463 -21 24 -48 23 -73 -2 -19 -19 -20
-33 -20 -465 l0 -446 -57 3 -58 3 -3 498 -2 497 235 0 235 0 0 55 0 55 -290 0
-290 0 -2 -552z"/>
<path d="M307 1284 c-4 -4 -7 -115 -7 -246 l0 -238 185 0 185 0 0 45 0 45
-125 0 -125 0 -2 198 -3 197 -50 3 c-28 2 -54 0 -58 -4z"/>
<path d="M757 1284 c-4 -4 -7 -115 -7 -246 l0 -238 195 0 195 0 0 45 0 45
-133 0 c-74 0 -136 2 -138 4 -2 2 -2 27 -1 55 l4 51 114 0 114 0 0 45 0 45
-115 0 -115 0 0 55 0 55 131 0 130 0 -3 43 -3 42 -181 3 c-99 1 -183 -1 -187
-4z"/>
<path d="M1378 1275 c-101 -37 -158 -121 -158 -231 0 -84 22 -135 77 -185 60
-55 117 -73 210 -67 54 4 93 12 126 29 l47 23 0 103 0 103 -50 0 -50 0 0 -70
c0 -82 -8 -90 -93 -90 -40 0 -63 6 -88 23 -97 64 -89 221 14 268 57 25 94 24
156 -7 l53 -27 31 31 31 31 -23 25 c-48 52 -197 73 -283 41z"/>
<path d="M1941 1248 c-22 -51 -126 -284 -170 -381 l-31 -68 61 3 61 3 18 45
18 45 119 3 119 3 21 -51 21 -50 61 0 61 0 -14 33 c-25 57 -165 360 -188 407
-23 45 -23 45 -81 48 l-57 3 -19 -43z m122 -175 l35 -83 -80 0 c-44 0 -78 4
-76 8 49 122 73 171 79 165 4 -5 23 -45 42 -90z"/>
<path d="M2387 1284 c-4 -4 -7 -115 -7 -246 l0 -238 180 0 180 0 0 45 0 45
-125 0 -125 0 -2 198 -3 197 -45 3 c-25 2 -49 0 -53 -4z"/>
<path d="M2740 1240 l0 -50 75 0 75 0 2 -182 c0 -101 1 -189 1 -195 -1 -9 17
-13 58 -13 l59 0 2 197 3 197 25 1 c14 1 49 2 78 3 l53 2 -3 43 -3 42 -212 3
-213 2 0 -50z"/>
<path d="M3250 1045 l0 -245 195 0 195 0 0 45 0 45 -140 0 -140 0 0 55 0 55
115 0 115 0 0 45 0 45 -116 0 -115 0 3 53 3 52 128 3 127 3 0 44 0 45 -185 0
-185 0 0 -245z"/>
<path d="M3877 1276 c-125 -45 -191 -178 -153 -307 32 -111 126 -179 245 -179
87 0 135 15 178 53 l34 32 -34 33 -34 33 -38 -25 c-21 -14 -50 -27 -64 -28
-118 -6 -181 49 -181 159 0 125 144 196 244 119 l32 -24 38 31 37 32 -28 27
c-15 15 -45 34 -65 42 -46 20 -159 20 -211 2z"/>
<path d="M4275 1281 c-3 -2 -5 -111 -5 -241 l0 -237 53 -6 c28 -2 55 -3 60 0
4 2 7 49 7 104 l0 99 110 0 110 0 0 -100 0 -100 55 0 55 0 0 246 0 247 -31 -7
c-17 -3 -42 -6 -55 -6 -22 0 -23 -3 -26 -92 l-3 -93 -107 -3 -107 -3 -3 98 -3
98 -53 0 c-29 1 -55 -1 -57 -4z"/>
<path d="M2237 576 c-95 -26 -152 -108 -145 -212 7 -108 78 -181 187 -192 79
-7 193 40 165 68 -9 9 -22 6 -52 -9 -45 -23 -114 -27 -159 -10 -129 49 -138
240 -14 306 56 29 105 29 164 -1 37 -18 49 -21 57 -11 16 19 -30 51 -91 64
-59 13 -51 13 -112 -3z"/>
<path d="M2671 580 c-89 -21 -161 -111 -161 -200 1 -142 138 -241 279 -200 95
27 146 99 146 207 0 52 -5 68 -31 105 -50 71 -148 108 -233 88z m116 -41 c101
-38 140 -161 81 -257 -58 -94 -222 -96 -284 -3 -48 74 -44 149 13 212 49 54
124 73 190 48z"/>
</g>
</svg>
